<?xml version="1.0" encoding="UTF-8"?>
<svg xmlns="http://www.w3.org/2000/svg" width="2048" height="512" viewBox="0 0 2048 512" role="img" aria-labelledby="title desc">
  <title id="title">CC Safety Net logo</title>
  <desc id="desc">Vector trace of the supplied CC Safety Net wordmark, black lettering on a transparent background.</desc>
  <path d="M 1439 165 L 1411 165 L 1409 166 L 1408 168 L 1403 173 L 1403 174 L 1398 179 L 1398 180 L 1395 183 L 1394 183 L 1394 184 L 1385 194 L 1385 195 L 1381 199 L 1381 200 L 1378 202 L 1378 203 L 1374 207 L 1374 208 L 1367 215 L 1367 216 L 1358 226 L 1358 227 L 1352 233 L 1352 234 L 1347 239 L 1347 240 L 1341 246 L 1341 247 L 1336 252 L 1336 253 L 1332 257 L 1332 258 L 1325 265 L 1325 266 L 1319 272 L 1319 273 L 1314 278 L 1314 279 L 1309 284 L 1309 285 L 1303 291 L 1303 292 L 1299 296 L 1299 297 L 1294 302 L 1291 299 L 1290 300 L 1290 301 L 1293 301 L 1294 302 L 1288 309 L 1287 308 L 1288 309 L 1286 312 L 1285 311 L 1285 306 L 1286 305 L 1286 303 L 1288 299 L 1288 296 L 1289 295 L 1289 292 L 1290 291 L 1290 287 L 1291 286 L 1291 284 L 1293 280 L 1293 277 L 1294 276 L 1294 272 L 1295 271 L 1295 269 L 1297 265 L 1297 262 L 1298 261 L 1298 258 L 1299 257 L 1299 253 L 1300 252 L 1300 250 L 1301 249 L 1301 247 L 1303 243 L 1303 238 L 1304 237 L 1304 235 L 1305 234 L 1305 232 L 1307 228 L 1307 224 L 1308 223 L 1308 221 L 1309 220 L 1309 217 L 1310 216 L 1310 214 L 1312 210 L 1312 205 L 1314 202 L 1314 199 L 1316 195 L 1317 188 L 1318 187 L 1318 185 L 1319 184 L 1319 182 L 1321 178 L 1321 173 L 1323 169 L 1323 166 L 1296 166 L 1296 168 L 1294 171 L 1294 174 L 1293 175 L 1293 178 L 1292 179 L 1291 186 L 1290 187 L 1290 189 L 1289 190 L 1289 192 L 1287 196 L 1287 200 L 1285 204 L 1285 207 L 1283 211 L 1283 215 L 1282 216 L 1282 218 L 1281 219 L 1281 222 L 1279 226 L 1279 229 L 1278 230 L 1278 234 L 1277 235 L 1277 237 L 1276 238 L 1276 240 L 1274 244 L 1274 249 L 1273 250 L 1273 252 L 1271 256 L 1271 259 L 1270 260 L 1270 263 L 1269 264 L 1269 268 L 1268 269 L 1268 271 L 1266 275 L 1266 278 L 1265 279 L 1265 284 L 1264 285 L 1264 287 L 1262 291 L 1262 294 L 1261 295 L 1261 298 L 1260 299 L 1259 306 L 1258 307 L 1258 309 L 1257 310 L 1257 313 L 1256 314 L 1256 318 L 1254 322 L 1254 325 L 1273 325 L 1274 327 L 1273 328 L 1272 327 L 1273 328 L 1269 332 L 1269 333 L 1265 337 L 1265 338 L 1261 341 L 1261 342 L 1252 352 L 1252 353 L 1247 358 L 1247 359 L 1242 364 L 1242 365 L 1239 367 L 1239 368 L 1224 385 L 1224 386 L 1220 390 L 1220 391 L 1216 395 L 1216 396 L 1214 397 L 1214 399 L 1247 399 L 1249 397 L 1249 396 L 1259 385 L 1259 384 L 1263 380 L 1263 379 L 1265 377 L 1266 377 L 1266 376 L 1271 371 L 1271 370 L 1278 363 L 1278 362 L 1283 357 L 1283 356 L 1294 344 L 1294 343 L 1298 339 L 1298 338 L 1305 331 L 1305 330 L 1309 326 L 1309 325 L 1312 323 L 1313 320 L 1315 319 L 1316 317 L 1321 312 L 1322 312 L 1321 311 L 1330 301 L 1330 300 L 1335 295 L 1335 294 L 1337 292 L 1338 292 L 1339 289 L 1342 287 L 1342 286 L 1346 282 L 1346 281 L 1352 275 L 1352 274 L 1361 264 L 1361 263 L 1370 253 L 1370 252 L 1375 247 L 1375 246 L 1380 241 L 1380 240 L 1387 233 L 1387 232 L 1402 215 L 1402 214 L 1406 210 L 1406 209 L 1408 207 L 1409 207 L 1409 206 L 1413 202 L 1413 201 L 1418 196 L 1418 195 L 1422 191 L 1422 190 L 1427 185 L 1427 184 L 1431 180 L 1431 179 L 1440 169 L 1441 167 Z
M 1129 179 L 1126 178 L 1125 176 L 1124 176 L 1116 170 L 1114 170 L 1107 166 L 1105 166 L 1104 165 L 1101 165 L 1100 164 L 1096 164 L 1095 163 L 1091 163 L 1090 162 L 1081 162 L 1080 161 L 1076 161 L 1075 162 L 1066 162 L 1065 163 L 1061 163 L 1060 164 L 1057 164 L 1056 165 L 1051 165 L 1050 166 L 1045 167 L 1040 170 L 1038 170 L 1028 175 L 1023 179 L 1021 179 L 1017 183 L 1016 183 L 1012 187 L 1011 187 L 999 199 L 999 200 L 996 203 L 996 204 L 994 205 L 993 208 L 990 211 L 981 229 L 981 231 L 980 232 L 980 234 L 979 235 L 979 237 L 977 241 L 977 244 L 976 245 L 976 254 L 975 255 L 975 265 L 976 266 L 976 273 L 977 274 L 977 277 L 980 283 L 981 288 L 984 292 L 985 295 L 988 298 L 989 301 L 998 310 L 1001 311 L 1004 314 L 1007 315 L 1009 317 L 1013 319 L 1015 319 L 1018 321 L 1020 321 L 1024 323 L 1027 323 L 1028 324 L 1035 324 L 1036 325 L 1054 325 L 1055 324 L 1062 324 L 1063 323 L 1067 323 L 1068 322 L 1071 322 L 1077 319 L 1080 319 L 1087 315 L 1089 315 L 1093 313 L 1095 311 L 1098 310 L 1103 306 L 1106 305 L 1116 296 L 1117 296 L 1115 292 L 1113 290 L 1112 290 L 1111 288 L 1109 286 L 1108 286 L 1107 284 L 1100 278 L 1098 279 L 1090 286 L 1089 286 L 1086 289 L 1074 295 L 1072 295 L 1068 297 L 1065 297 L 1064 298 L 1061 298 L 1060 299 L 1041 299 L 1040 298 L 1037 298 L 1036 297 L 1031 296 L 1028 294 L 1026 294 L 1024 292 L 1020 290 L 1010 280 L 1008 275 L 1006 273 L 1005 271 L 1005 268 L 1004 267 L 1004 264 L 1003 263 L 1003 248 L 1004 247 L 1005 238 L 1008 233 L 1008 231 L 1010 227 L 1012 225 L 1013 222 L 1018 216 L 1018 215 L 1030 203 L 1031 203 L 1044 194 L 1046 194 L 1053 190 L 1056 190 L 1057 189 L 1060 189 L 1061 188 L 1064 188 L 1065 187 L 1071 187 L 1072 186 L 1076 186 L 1077 187 L 1083 187 L 1084 188 L 1087 188 L 1088 189 L 1090 189 L 1091 190 L 1096 191 L 1100 194 L 1103 195 L 1106 198 L 1107 198 L 1109 200 L 1109 201 L 1114 206 L 1114 207 L 1116 209 L 1118 213 L 1118 216 L 1120 220 L 1120 225 L 1116 227 L 1111 227 L 1110 228 L 1103 228 L 1102 229 L 1097 229 L 1096 230 L 1091 230 L 1090 231 L 1086 231 L 1085 232 L 1077 232 L 1076 233 L 1072 233 L 1071 234 L 1066 234 L 1065 235 L 1061 235 L 1060 236 L 1053 236 L 1052 237 L 1047 237 L 1047 240 L 1046 241 L 1046 243 L 1045 244 L 1045 247 L 1044 248 L 1044 250 L 1043 251 L 1043 254 L 1042 255 L 1042 260 L 1041 261 L 1041 263 L 1044 263 L 1045 262 L 1050 262 L 1051 261 L 1058 261 L 1059 260 L 1063 260 L 1064 259 L 1068 259 L 1069 258 L 1073 258 L 1074 257 L 1080 257 L 1081 256 L 1086 256 L 1087 255 L 1092 255 L 1093 254 L 1097 254 L 1098 253 L 1103 253 L 1104 252 L 1111 252 L 1112 251 L 1116 251 L 1117 250 L 1121 250 L 1122 249 L 1126 249 L 1127 248 L 1133 248 L 1134 247 L 1139 247 L 1140 246 L 1144 246 L 1146 243 L 1146 240 L 1147 239 L 1147 231 L 1148 230 L 1148 220 L 1147 219 L 1147 211 L 1146 210 L 1146 207 L 1144 204 L 1144 202 L 1143 201 L 1143 199 L 1141 195 L 1139 193 L 1138 190 L 1134 186 L 1133 183 L 1132 183 L 1129 180 Z
M 1779 171 L 1767 165 L 1765 165 L 1764 164 L 1762 164 L 1758 162 L 1755 162 L 1754 161 L 1747 161 L 1746 160 L 1729 160 L 1728 161 L 1722 161 L 1721 162 L 1718 162 L 1717 163 L 1715 163 L 1711 165 L 1707 165 L 1687 175 L 1685 177 L 1681 179 L 1672 187 L 1671 187 L 1661 197 L 1661 198 L 1657 202 L 1657 203 L 1652 209 L 1651 212 L 1649 214 L 1644 224 L 1643 229 L 1640 235 L 1640 238 L 1639 239 L 1639 244 L 1638 245 L 1638 250 L 1637 251 L 1637 267 L 1638 268 L 1638 273 L 1639 274 L 1639 278 L 1640 279 L 1640 282 L 1648 298 L 1652 302 L 1652 303 L 1655 306 L 1657 307 L 1657 308 L 1659 310 L 1660 310 L 1663 313 L 1669 316 L 1671 318 L 1673 319 L 1675 319 L 1676 320 L 1678 320 L 1684 323 L 1688 323 L 1689 324 L 1696 324 L 1697 325 L 1715 325 L 1716 324 L 1723 324 L 1724 323 L 1728 323 L 1729 322 L 1732 322 L 1738 319 L 1741 319 L 1748 315 L 1750 315 L 1754 313 L 1758 310 L 1759 311 L 1760 309 L 1761 309 L 1764 306 L 1765 306 L 1771 301 L 1772 301 L 1778 295 L 1761 278 L 1760 278 L 1756 282 L 1755 282 L 1751 286 L 1750 286 L 1745 290 L 1737 294 L 1732 295 L 1729 297 L 1726 297 L 1725 298 L 1721 298 L 1720 299 L 1703 299 L 1702 298 L 1698 298 L 1697 297 L 1692 296 L 1684 292 L 1682 290 L 1681 290 L 1673 282 L 1671 278 L 1668 275 L 1668 273 L 1667 272 L 1667 270 L 1666 269 L 1666 267 L 1664 263 L 1664 246 L 1665 245 L 1665 242 L 1666 241 L 1666 239 L 1668 235 L 1668 232 L 1670 228 L 1672 226 L 1673 224 L 1673 222 L 1680 214 L 1680 213 L 1690 203 L 1691 203 L 1694 200 L 1695 200 L 1700 196 L 1712 190 L 1715 190 L 1716 189 L 1718 189 L 1722 187 L 1725 187 L 1726 186 L 1744 186 L 1745 187 L 1747 187 L 1748 188 L 1750 188 L 1751 189 L 1756 190 L 1758 191 L 1761 194 L 1764 195 L 1773 204 L 1773 205 L 1777 210 L 1777 212 L 1778 213 L 1778 215 L 1780 219 L 1780 223 L 1781 225 L 1780 226 L 1775 226 L 1774 227 L 1768 227 L 1767 228 L 1759 228 L 1758 229 L 1753 229 L 1752 230 L 1747 230 L 1746 231 L 1742 231 L 1741 232 L 1733 232 L 1732 233 L 1727 233 L 1726 234 L 1722 234 L 1721 235 L 1717 235 L 1716 236 L 1709 236 L 1707 238 L 1707 241 L 1706 242 L 1706 246 L 1705 247 L 1705 250 L 1703 254 L 1703 258 L 1702 259 L 1702 262 L 1706 262 L 1707 261 L 1714 261 L 1715 260 L 1724 259 L 1725 258 L 1728 258 L 1729 257 L 1735 257 L 1736 256 L 1742 256 L 1743 255 L 1747 255 L 1748 254 L 1752 254 L 1753 253 L 1757 253 L 1758 252 L 1765 252 L 1766 251 L 1771 251 L 1772 250 L 1776 250 L 1777 249 L 1781 249 L 1782 248 L 1789 248 L 1790 247 L 1794 247 L 1795 246 L 1804 245 L 1805 243 L 1805 240 L 1806 239 L 1807 240 L 1807 243 L 1809 244 L 1809 241 L 1808 241 L 1806 238 L 1806 232 L 1807 231 L 1807 217 L 1806 216 L 1806 210 L 1805 209 L 1805 206 L 1802 200 L 1802 198 L 1800 194 L 1798 192 L 1797 189 L 1790 181 L 1790 180 L 1788 179 Z
M 714 187 L 712 189 L 712 190 L 708 193 L 708 194 L 704 198 L 704 199 L 700 203 L 700 204 L 695 210 L 695 212 L 693 214 L 690 220 L 690 222 L 686 229 L 686 233 L 684 237 L 684 240 L 683 241 L 683 245 L 682 246 L 682 268 L 683 269 L 683 273 L 684 274 L 684 276 L 686 280 L 686 283 L 692 295 L 699 303 L 699 304 L 701 306 L 702 306 L 704 308 L 704 309 L 707 310 L 711 314 L 716 316 L 718 318 L 720 319 L 722 319 L 725 321 L 730 322 L 731 323 L 734 323 L 735 324 L 740 324 L 741 325 L 749 325 L 750 326 L 759 326 L 760 325 L 767 325 L 768 324 L 775 324 L 776 323 L 780 323 L 788 319 L 791 319 L 792 318 L 794 318 L 798 315 L 800 315 L 810 309 L 812 310 L 812 313 L 811 314 L 811 319 L 810 320 L 809 325 L 836 325 L 839 319 L 839 316 L 840 315 L 840 310 L 841 309 L 841 307 L 842 306 L 842 303 L 844 299 L 844 295 L 845 294 L 846 287 L 847 286 L 847 284 L 849 280 L 849 275 L 850 274 L 850 271 L 851 270 L 851 268 L 853 264 L 854 255 L 855 254 L 855 252 L 856 251 L 856 248 L 857 247 L 857 244 L 858 243 L 858 217 L 857 216 L 857 212 L 854 206 L 853 201 L 851 197 L 849 195 L 849 193 L 846 190 L 844 186 L 835 177 L 834 177 L 831 174 L 830 174 L 825 170 L 823 170 L 814 165 L 811 165 L 808 163 L 805 163 L 804 162 L 800 162 L 799 161 L 793 161 L 792 160 L 773 160 L 772 161 L 765 161 L 764 162 L 757 163 L 753 165 L 750 165 L 743 169 L 741 169 L 735 172 L 733 174 L 730 175 L 728 177 L 724 179 L 715 187 Z
M 806 192 L 808 194 L 811 195 L 815 199 L 816 199 L 822 206 L 822 207 L 824 209 L 827 215 L 827 217 L 829 221 L 829 226 L 830 227 L 830 240 L 829 241 L 829 246 L 828 247 L 828 250 L 827 251 L 827 253 L 825 256 L 825 258 L 823 262 L 821 264 L 820 267 L 817 270 L 817 271 L 808 281 L 807 281 L 803 285 L 799 287 L 796 290 L 794 290 L 788 294 L 786 294 L 785 295 L 783 295 L 782 296 L 780 296 L 776 298 L 773 298 L 772 299 L 748 299 L 747 298 L 744 298 L 743 297 L 738 296 L 735 294 L 733 294 L 731 292 L 727 290 L 717 280 L 717 279 L 715 277 L 712 271 L 712 269 L 710 265 L 710 262 L 709 261 L 709 245 L 710 244 L 710 240 L 711 239 L 711 237 L 712 236 L 713 231 L 717 223 L 719 221 L 720 218 L 724 214 L 724 213 L 734 203 L 735 203 L 739 199 L 742 198 L 744 196 L 756 190 L 758 190 L 762 188 L 765 188 L 766 187 L 769 187 L 770 186 L 788 186 L 789 187 L 792 187 L 796 189 L 799 189 L 800 190 L 802 190 Z
M 1192 121 L 1190 122 L 1190 124 L 1189 125 L 1189 129 L 1188 130 L 1188 132 L 1186 136 L 1186 139 L 1185 140 L 1184 147 L 1183 148 L 1183 150 L 1181 154 L 1181 157 L 1180 158 L 1180 162 L 1179 163 L 1179 165 L 1178 166 L 1178 168 L 1176 172 L 1176 176 L 1175 177 L 1175 179 L 1173 183 L 1173 186 L 1172 187 L 1171 194 L 1170 195 L 1170 197 L 1168 201 L 1168 204 L 1167 205 L 1167 209 L 1166 210 L 1166 212 L 1164 216 L 1164 219 L 1163 220 L 1162 227 L 1160 231 L 1160 234 L 1159 235 L 1158 242 L 1157 243 L 1157 245 L 1155 249 L 1155 252 L 1154 253 L 1154 259 L 1153 260 L 1153 276 L 1154 277 L 1154 282 L 1155 283 L 1155 286 L 1158 292 L 1158 294 L 1161 298 L 1162 301 L 1173 313 L 1174 313 L 1182 319 L 1184 319 L 1189 322 L 1191 322 L 1195 324 L 1199 324 L 1200 325 L 1236 325 L 1236 323 L 1237 322 L 1237 319 L 1238 318 L 1238 315 L 1239 314 L 1239 311 L 1240 310 L 1240 307 L 1241 306 L 1241 303 L 1242 302 L 1242 300 L 1241 299 L 1209 299 L 1208 298 L 1205 298 L 1195 293 L 1187 285 L 1186 282 L 1183 278 L 1183 275 L 1182 274 L 1182 271 L 1181 270 L 1181 257 L 1182 256 L 1182 253 L 1183 252 L 1183 248 L 1184 247 L 1184 245 L 1186 241 L 1186 238 L 1187 237 L 1187 233 L 1188 232 L 1188 230 L 1189 229 L 1189 227 L 1191 223 L 1191 220 L 1192 219 L 1192 215 L 1193 214 L 1193 211 L 1195 207 L 1195 204 L 1196 203 L 1196 199 L 1197 198 L 1197 195 L 1198 194 L 1198 192 L 1200 190 L 1278 190 L 1279 189 L 1279 187 L 1281 183 L 1281 180 L 1282 179 L 1282 177 L 1283 176 L 1283 174 L 1285 170 L 1285 166 L 1286 165 L 1285 164 L 1269 164 L 1268 165 L 1239 165 L 1238 164 L 1221 164 L 1220 165 L 1210 165 L 1209 164 L 1207 164 L 1206 163 L 1207 162 L 1207 159 L 1209 155 L 1209 152 L 1210 151 L 1210 147 L 1211 146 L 1211 144 L 1213 140 L 1214 133 L 1216 129 L 1217 122 L 1216 121 Z
M 997 121 L 978 121 L 977 122 L 960 122 L 959 123 L 952 124 L 948 126 L 945 126 L 938 130 L 936 130 L 931 134 L 928 135 L 925 138 L 922 139 L 917 144 L 916 144 L 907 153 L 907 154 L 903 158 L 903 159 L 897 166 L 888 184 L 888 186 L 886 190 L 886 193 L 884 197 L 884 200 L 882 204 L 882 209 L 881 210 L 881 213 L 880 214 L 880 216 L 878 220 L 878 224 L 877 225 L 876 232 L 875 233 L 875 235 L 873 239 L 873 244 L 871 248 L 871 251 L 869 255 L 869 259 L 868 260 L 868 263 L 867 264 L 867 266 L 866 267 L 866 270 L 864 274 L 864 279 L 863 280 L 863 282 L 862 283 L 862 285 L 860 289 L 860 294 L 859 295 L 859 298 L 857 301 L 857 304 L 856 305 L 856 308 L 855 309 L 855 313 L 854 314 L 854 316 L 853 317 L 853 320 L 851 324 L 852 325 L 878 325 L 879 324 L 879 322 L 880 321 L 880 317 L 881 316 L 881 314 L 883 310 L 883 307 L 884 306 L 885 299 L 887 295 L 887 292 L 888 291 L 889 284 L 891 280 L 891 277 L 892 276 L 892 273 L 893 272 L 894 265 L 896 261 L 896 258 L 897 257 L 897 254 L 898 253 L 898 249 L 899 248 L 899 246 L 901 242 L 901 239 L 902 238 L 903 231 L 905 227 L 905 224 L 906 223 L 906 219 L 907 218 L 908 211 L 910 207 L 910 204 L 911 203 L 911 199 L 912 198 L 912 196 L 914 194 L 980 194 L 982 192 L 982 188 L 983 187 L 984 180 L 986 176 L 986 173 L 988 172 L 987 170 L 987 168 L 930 168 L 929 167 L 937 159 L 938 159 L 941 156 L 942 156 L 944 154 L 946 154 L 948 152 L 952 150 L 955 150 L 956 149 L 959 149 L 960 148 L 964 148 L 965 147 L 992 147 L 993 146 L 993 144 L 995 140 L 995 136 L 996 135 L 996 130 L 998 126 L 998 122 Z
M 1844 120 L 1842 124 L 1842 127 L 1841 128 L 1841 131 L 1840 132 L 1840 136 L 1839 137 L 1839 140 L 1838 141 L 1838 144 L 1837 145 L 1837 149 L 1835 153 L 1835 157 L 1834 158 L 1834 161 L 1832 165 L 1832 168 L 1831 169 L 1831 173 L 1830 174 L 1830 177 L 1828 181 L 1828 184 L 1827 185 L 1827 188 L 1826 189 L 1826 193 L 1824 197 L 1824 200 L 1823 201 L 1823 204 L 1822 205 L 1822 209 L 1821 210 L 1821 213 L 1820 214 L 1820 216 L 1819 217 L 1819 220 L 1818 221 L 1818 224 L 1817 225 L 1817 230 L 1815 234 L 1815 237 L 1813 241 L 1813 245 L 1812 246 L 1812 249 L 1811 250 L 1811 253 L 1810 254 L 1810 259 L 1809 260 L 1809 275 L 1810 276 L 1810 280 L 1811 281 L 1811 284 L 1812 285 L 1812 287 L 1813 288 L 1814 293 L 1817 297 L 1818 300 L 1821 303 L 1821 304 L 1831 314 L 1834 315 L 1839 319 L 1841 319 L 1849 323 L 1852 323 L 1853 324 L 1858 324 L 1859 325 L 1890 325 L 1891 324 L 1891 321 L 1892 320 L 1892 317 L 1893 316 L 1893 313 L 1894 312 L 1894 309 L 1895 308 L 1896 299 L 1865 299 L 1864 298 L 1861 298 L 1854 294 L 1852 294 L 1848 290 L 1847 290 L 1846 288 L 1842 284 L 1841 281 L 1839 279 L 1837 275 L 1837 270 L 1836 269 L 1836 258 L 1837 257 L 1837 250 L 1838 249 L 1838 246 L 1840 242 L 1840 239 L 1841 238 L 1841 235 L 1842 234 L 1842 230 L 1844 226 L 1844 223 L 1845 222 L 1845 219 L 1846 218 L 1846 214 L 1847 213 L 1847 210 L 1848 209 L 1848 207 L 1849 206 L 1849 203 L 1850 202 L 1850 199 L 1851 198 L 1851 193 L 1853 189 L 1924 189 L 1925 188 L 1925 185 L 1926 184 L 1926 180 L 1927 179 L 1927 176 L 1928 175 L 1928 172 L 1929 171 L 1930 164 L 1929 163 L 1860 163 L 1859 162 L 1860 161 L 1861 154 L 1862 153 L 1862 151 L 1863 150 L 1863 147 L 1864 146 L 1864 141 L 1865 140 L 1865 138 L 1866 137 L 1866 134 L 1868 130 L 1868 126 L 1869 125 L 1869 120 Z
M 675 120 L 575 120 L 574 121 L 567 121 L 566 122 L 563 122 L 562 123 L 559 123 L 558 124 L 556 124 L 555 125 L 550 126 L 538 132 L 536 134 L 532 136 L 528 140 L 527 140 L 526 142 L 522 145 L 522 146 L 518 150 L 516 154 L 513 157 L 513 159 L 508 168 L 508 173 L 507 174 L 507 177 L 506 178 L 506 194 L 507 195 L 508 202 L 510 205 L 510 207 L 512 209 L 514 214 L 517 217 L 517 218 L 520 221 L 521 221 L 522 223 L 523 223 L 529 228 L 533 230 L 535 230 L 538 232 L 543 233 L 544 234 L 551 234 L 552 235 L 615 235 L 616 234 L 618 234 L 619 235 L 624 235 L 625 236 L 627 236 L 635 240 L 641 247 L 643 251 L 643 253 L 644 254 L 644 267 L 643 268 L 643 271 L 642 272 L 642 274 L 641 276 L 639 278 L 637 282 L 630 289 L 629 289 L 627 291 L 626 291 L 622 294 L 620 294 L 616 296 L 613 296 L 612 297 L 487 297 L 485 299 L 485 302 L 483 306 L 483 310 L 482 311 L 482 314 L 481 315 L 481 319 L 480 320 L 480 325 L 607 325 L 608 324 L 614 324 L 615 323 L 619 323 L 627 319 L 630 319 L 634 317 L 636 315 L 638 315 L 640 313 L 641 313 L 649 306 L 650 306 L 653 303 L 654 301 L 655 301 L 655 300 L 662 292 L 662 290 L 664 288 L 667 282 L 667 280 L 668 279 L 668 277 L 670 273 L 670 270 L 671 269 L 671 248 L 670 247 L 670 244 L 669 243 L 668 238 L 665 232 L 662 229 L 661 226 L 655 220 L 654 220 L 648 215 L 640 211 L 638 211 L 637 210 L 633 210 L 632 209 L 627 209 L 626 208 L 553 208 L 552 207 L 550 207 L 544 204 L 537 197 L 535 193 L 534 188 L 533 187 L 533 180 L 534 179 L 534 176 L 537 170 L 537 168 L 539 166 L 539 165 L 549 155 L 554 153 L 558 150 L 561 150 L 562 149 L 565 149 L 566 148 L 570 148 L 571 147 L 670 147 L 671 146 L 671 141 L 672 140 L 672 137 L 674 133 L 674 129 L 675 128 L 675 124 L 676 123 L 676 121 Z
M 333 132 L 331 134 L 328 135 L 326 137 L 321 139 L 311 148 L 310 148 L 296 163 L 296 164 L 290 172 L 288 177 L 286 179 L 286 181 L 282 188 L 281 193 L 279 196 L 279 198 L 277 202 L 277 206 L 276 207 L 276 212 L 275 213 L 275 220 L 274 221 L 274 237 L 275 238 L 275 244 L 276 245 L 277 254 L 278 255 L 279 260 L 281 263 L 282 268 L 286 276 L 288 278 L 289 281 L 294 287 L 294 288 L 305 300 L 306 300 L 311 305 L 315 307 L 318 310 L 320 310 L 323 313 L 327 315 L 329 315 L 336 319 L 339 319 L 340 320 L 342 320 L 343 321 L 345 321 L 349 323 L 353 323 L 354 324 L 363 324 L 364 325 L 434 325 L 435 324 L 435 319 L 436 318 L 436 309 L 437 308 L 437 301 L 438 300 L 438 298 L 437 297 L 364 297 L 363 296 L 354 295 L 348 292 L 346 292 L 340 289 L 338 287 L 335 286 L 332 283 L 331 283 L 322 275 L 322 274 L 315 266 L 312 260 L 310 258 L 310 256 L 306 249 L 306 245 L 305 244 L 305 241 L 304 240 L 304 237 L 303 236 L 303 216 L 304 215 L 304 211 L 305 210 L 306 203 L 315 185 L 317 183 L 319 179 L 324 174 L 324 173 L 326 172 L 329 168 L 330 168 L 334 164 L 337 163 L 340 160 L 345 158 L 347 156 L 351 154 L 356 153 L 359 151 L 361 151 L 362 150 L 367 150 L 368 149 L 373 149 L 374 148 L 445 148 L 447 144 L 447 136 L 448 135 L 448 124 L 449 122 L 447 120 L 378 120 L 377 121 L 367 121 L 366 122 L 362 122 L 361 123 L 358 123 L 357 124 L 350 125 L 342 129 L 340 129 L 337 131 L 335 131 Z
M 181 132 L 179 134 L 174 136 L 172 138 L 168 140 L 165 143 L 164 143 L 159 148 L 158 148 L 156 150 L 156 151 L 154 152 L 152 154 L 152 155 L 147 160 L 147 161 L 143 165 L 143 166 L 139 171 L 138 174 L 136 176 L 130 188 L 130 190 L 129 191 L 129 193 L 128 194 L 128 196 L 126 200 L 126 203 L 125 204 L 125 208 L 124 209 L 124 213 L 123 214 L 123 222 L 122 223 L 122 232 L 123 233 L 123 241 L 124 242 L 124 246 L 125 247 L 125 252 L 126 253 L 126 256 L 129 262 L 130 267 L 135 277 L 137 279 L 138 282 L 144 289 L 144 290 L 156 302 L 157 302 L 160 305 L 164 307 L 167 310 L 167 311 L 169 310 L 174 314 L 176 315 L 178 315 L 185 319 L 188 319 L 189 320 L 191 320 L 195 322 L 198 322 L 199 323 L 204 323 L 205 324 L 214 324 L 215 325 L 286 325 L 287 324 L 287 319 L 288 318 L 288 302 L 289 301 L 289 298 L 288 297 L 214 297 L 213 296 L 208 296 L 207 295 L 200 294 L 195 291 L 193 291 L 189 289 L 187 287 L 184 286 L 178 281 L 177 281 L 168 272 L 168 271 L 164 267 L 163 264 L 159 259 L 159 257 L 155 250 L 155 248 L 154 247 L 154 243 L 152 239 L 152 233 L 151 232 L 151 221 L 152 220 L 152 214 L 153 213 L 153 210 L 154 209 L 154 205 L 157 199 L 157 197 L 159 194 L 159 192 L 163 187 L 163 185 L 167 181 L 168 178 L 170 177 L 171 175 L 184 163 L 185 163 L 190 159 L 200 154 L 202 154 L 205 152 L 207 152 L 210 150 L 215 150 L 216 149 L 222 149 L 223 148 L 295 148 L 296 147 L 296 140 L 297 139 L 297 128 L 298 127 L 298 121 L 297 120 L 227 120 L 226 121 L 215 121 L 214 122 L 209 122 L 208 123 L 205 123 L 201 125 L 198 125 L 197 126 L 192 127 L 185 131 L 183 131 Z
M 1506 121 L 1499 127 L 1497 131 L 1497 138 L 1496 139 L 1496 143 L 1495 144 L 1495 147 L 1494 148 L 1494 151 L 1493 152 L 1493 155 L 1492 156 L 1491 163 L 1489 167 L 1489 170 L 1488 171 L 1488 175 L 1487 176 L 1487 179 L 1485 183 L 1485 186 L 1484 187 L 1484 190 L 1483 191 L 1483 195 L 1482 196 L 1482 199 L 1481 200 L 1481 202 L 1480 203 L 1480 206 L 1479 207 L 1479 212 L 1478 213 L 1478 216 L 1476 220 L 1476 223 L 1475 224 L 1475 227 L 1474 228 L 1474 232 L 1473 233 L 1472 240 L 1470 244 L 1470 249 L 1469 250 L 1468 257 L 1466 261 L 1466 265 L 1465 266 L 1465 270 L 1464 271 L 1464 274 L 1463 275 L 1463 277 L 1462 278 L 1462 281 L 1461 282 L 1461 287 L 1460 288 L 1460 290 L 1459 291 L 1459 294 L 1457 298 L 1456 307 L 1455 308 L 1455 311 L 1454 312 L 1454 314 L 1453 315 L 1453 318 L 1452 319 L 1452 325 L 1478 325 L 1479 324 L 1479 321 L 1481 317 L 1481 312 L 1482 311 L 1482 308 L 1483 307 L 1483 304 L 1484 303 L 1484 300 L 1485 299 L 1485 296 L 1486 295 L 1486 290 L 1488 286 L 1488 283 L 1489 282 L 1489 279 L 1490 278 L 1490 274 L 1491 273 L 1491 270 L 1492 269 L 1492 267 L 1493 266 L 1493 263 L 1494 262 L 1495 253 L 1496 252 L 1496 249 L 1497 248 L 1497 245 L 1498 244 L 1498 241 L 1499 240 L 1499 235 L 1500 234 L 1500 232 L 1502 228 L 1502 225 L 1503 224 L 1503 220 L 1504 219 L 1504 216 L 1506 212 L 1506 209 L 1507 208 L 1507 205 L 1508 204 L 1508 199 L 1509 198 L 1509 195 L 1511 191 L 1511 188 L 1512 187 L 1512 183 L 1513 182 L 1513 179 L 1515 175 L 1516 168 L 1517 167 L 1519 169 L 1519 171 L 1520 172 L 1521 170 L 1521 167 L 1519 165 L 1518 167 L 1517 166 L 1518 159 L 1520 156 L 1522 159 L 1522 162 L 1523 163 L 1524 170 L 1525 171 L 1525 173 L 1527 177 L 1527 180 L 1528 181 L 1528 183 L 1530 187 L 1530 190 L 1532 194 L 1532 197 L 1533 198 L 1533 200 L 1534 201 L 1534 203 L 1536 207 L 1536 211 L 1537 212 L 1537 215 L 1538 216 L 1538 218 L 1539 219 L 1539 221 L 1541 225 L 1541 229 L 1542 230 L 1542 232 L 1543 233 L 1543 235 L 1545 239 L 1546 246 L 1547 247 L 1547 249 L 1548 250 L 1548 252 L 1550 256 L 1550 261 L 1551 262 L 1551 264 L 1552 265 L 1552 267 L 1554 271 L 1555 278 L 1556 279 L 1556 281 L 1558 285 L 1558 288 L 1559 289 L 1560 296 L 1561 297 L 1561 299 L 1563 303 L 1563 307 L 1564 308 L 1564 310 L 1566 314 L 1568 316 L 1568 317 L 1570 319 L 1571 319 L 1573 321 L 1577 323 L 1579 323 L 1580 324 L 1595 324 L 1596 323 L 1598 323 L 1606 318 L 1610 310 L 1610 306 L 1612 302 L 1612 299 L 1613 298 L 1613 296 L 1614 295 L 1614 292 L 1615 291 L 1615 287 L 1616 286 L 1616 284 L 1617 283 L 1617 280 L 1619 276 L 1619 272 L 1620 271 L 1620 269 L 1621 268 L 1621 265 L 1623 261 L 1623 258 L 1624 257 L 1624 253 L 1625 252 L 1625 250 L 1627 246 L 1627 243 L 1628 242 L 1628 238 L 1629 237 L 1629 235 L 1631 231 L 1631 228 L 1632 227 L 1632 223 L 1633 222 L 1633 220 L 1634 219 L 1634 216 L 1635 215 L 1635 213 L 1637 209 L 1637 205 L 1638 204 L 1638 202 L 1639 201 L 1639 198 L 1641 194 L 1641 190 L 1642 189 L 1642 186 L 1643 185 L 1643 183 L 1645 179 L 1646 172 L 1647 171 L 1647 169 L 1648 168 L 1648 165 L 1650 161 L 1650 157 L 1651 156 L 1651 154 L 1652 153 L 1652 151 L 1654 147 L 1654 144 L 1655 143 L 1655 139 L 1656 138 L 1656 136 L 1657 135 L 1657 133 L 1659 129 L 1659 125 L 1661 122 L 1661 120 L 1660 119 L 1635 119 L 1632 123 L 1632 125 L 1631 126 L 1631 129 L 1630 130 L 1630 134 L 1629 135 L 1629 137 L 1627 141 L 1627 144 L 1626 145 L 1626 149 L 1625 150 L 1625 152 L 1624 153 L 1624 155 L 1622 159 L 1622 162 L 1621 163 L 1621 167 L 1620 168 L 1620 170 L 1618 174 L 1618 177 L 1617 178 L 1617 182 L 1616 183 L 1616 185 L 1614 189 L 1614 192 L 1612 196 L 1612 200 L 1611 201 L 1611 203 L 1610 204 L 1610 207 L 1608 211 L 1608 215 L 1606 219 L 1606 222 L 1604 226 L 1604 229 L 1603 230 L 1602 237 L 1600 241 L 1600 244 L 1599 245 L 1599 249 L 1598 250 L 1598 253 L 1597 254 L 1597 256 L 1595 260 L 1595 264 L 1594 265 L 1594 268 L 1592 272 L 1592 275 L 1590 278 L 1588 274 L 1587 274 L 1587 277 L 1590 281 L 1590 284 L 1588 288 L 1586 287 L 1586 285 L 1585 284 L 1585 281 L 1583 277 L 1583 273 L 1582 272 L 1582 270 L 1581 269 L 1581 267 L 1579 263 L 1579 260 L 1578 259 L 1578 256 L 1577 255 L 1577 253 L 1575 249 L 1575 246 L 1574 245 L 1573 238 L 1572 237 L 1572 235 L 1570 231 L 1569 224 L 1568 223 L 1568 221 L 1566 217 L 1565 210 L 1564 209 L 1564 207 L 1562 203 L 1562 200 L 1561 199 L 1560 192 L 1559 191 L 1559 189 L 1557 185 L 1557 182 L 1556 181 L 1556 179 L 1555 178 L 1555 176 L 1553 172 L 1552 165 L 1550 161 L 1550 158 L 1548 154 L 1548 151 L 1547 150 L 1547 147 L 1545 143 L 1545 140 L 1544 139 L 1543 134 L 1541 130 L 1534 123 L 1530 121 L 1528 121 L 1524 119 L 1513 119 L 1512 120 L 1509 120 L 1508 121 Z" fill="#000000" fill-rule="evenodd" clip-rule="evenodd"/>
</svg>
