<?xml version="1.0" encoding="UTF-8"?>
<svg xmlns="http://www.w3.org/2000/svg" width="1254" height="1254" viewBox="54 23 1140 1140" role="img" aria-label="Safety net logo mesh variant">
  <defs>
    <radialGradient id="spot-0" cx="50%" cy="50%" r="50%">
      <stop offset="0%" stop-color="#f8fafc" stop-opacity="0.68"/>
      <stop offset="56%" stop-color="#f8fafc" stop-opacity="0.29"/>
      <stop offset="100%" stop-color="#f8fafc" stop-opacity="0"/>
    </radialGradient>
    <radialGradient id="spot-1" cx="50%" cy="50%" r="50%">
      <stop offset="0%" stop-color="#7dd3fc" stop-opacity="0.58"/>
      <stop offset="56%" stop-color="#7dd3fc" stop-opacity="0.24"/>
      <stop offset="100%" stop-color="#7dd3fc" stop-opacity="0"/>
    </radialGradient>
    <radialGradient id="spot-2" cx="50%" cy="50%" r="50%">
      <stop offset="0%" stop-color="#64748b" stop-opacity="0.7"/>
      <stop offset="56%" stop-color="#64748b" stop-opacity="0.29"/>
      <stop offset="100%" stop-color="#64748b" stop-opacity="0"/>
    </radialGradient>
    <radialGradient id="spot-3" cx="50%" cy="50%" r="50%">
      <stop offset="0%" stop-color="#0f172a" stop-opacity="0.9"/>
      <stop offset="56%" stop-color="#0f172a" stop-opacity="0.38"/>
      <stop offset="100%" stop-color="#0f172a" stop-opacity="0"/>
    </radialGradient>
    <linearGradient id="edge" x1="14%" y1="8%" x2="88%" y2="94%">
      <stop offset="0%" stop-color="#ffffff" stop-opacity="0.7"/>
      <stop offset="50%" stop-color="#bae6fd" stop-opacity="0.24"/>
      <stop offset="100%" stop-color="#1e293b" stop-opacity="0.86"/>
    </linearGradient>
    <mask id="net-mask" maskUnits="userSpaceOnUse">
      <rect width="1254" height="1254" fill="black"/>
      <rect x="-46.32" y="-47.38" width="92.63" height="94.75" rx="12.00" ry="12.00" transform="translate(628.75 127.25) rotate(-45.00)" fill="white"/>
      <rect x="-66.82" y="-41.01" width="133.64" height="82.02" rx="12.00" ry="12.00" transform="translate(713.75 230.25) rotate(-45.00)" fill="white"/>
      <rect x="-39.95" y="-134.00" width="79.90" height="267.99" rx="12.00" ry="12.00" transform="translate(588.00 275.50) rotate(-45.00)" fill="white"/>
      <rect x="-39.60" y="-65.05" width="79.20" height="130.11" rx="12.00" ry="12.00" transform="translate(444.50 320.50) rotate(-45.00)" fill="white"/>
      <rect x="-133.29" y="-40.31" width="266.58" height="80.61" rx="12.00" ry="12.00" transform="translate(759.75 369.25) rotate(-45.00)" fill="white"/>
      <rect x="-77.07" y="-39.24" width="154.15" height="78.49" rx="12.00" ry="12.00" transform="translate(533.25 407.25) rotate(-45.00)" fill="white"/>
      <rect x="-67.10" y="-39.74" width="134.21" height="79.48" rx="12.00" ry="12.00" transform="translate(895.22 413.86) rotate(-45.00)" fill="white"/>
      <rect x="-39.84" y="-134.04" width="79.68" height="268.08" rx="12.00" ry="12.00" transform="translate(401.36 461.24) rotate(-45.00)" fill="white"/>
      <rect x="-39.60" y="-74.60" width="79.20" height="149.20" rx="12.00" ry="12.00" transform="translate(812.25 500.25) rotate(-45.00)" fill="white"/>
      <rect x="-39.60" y="-77.43" width="79.20" height="154.86" rx="12.00" ry="12.00" transform="translate(625.75 500.75) rotate(-45.00)" fill="white"/>
      <rect x="-39.24" y="-67.18" width="78.49" height="134.35" rx="12.00" ry="12.00" transform="translate(263.25 505.75) rotate(-45.00)" fill="white"/>
      <rect x="-133.28" y="-40.02" width="266.56" height="80.04" rx="12.00" ry="12.00" transform="translate(941.36 551.76) rotate(-45.00)" fill="white"/>
      <rect x="-54.80" y="-53.74" width="109.60" height="107.48" rx="12.00" ry="12.00" transform="translate(1096.75 593.25) rotate(-45.00)" fill="white"/>
      <rect x="-77.43" y="-40.31" width="154.86" height="80.61" rx="12.00" ry="12.00" transform="translate(719.75 594.25) rotate(-45.00)" fill="white"/>
      <rect x="-51.97" y="-54.45" width="103.94" height="108.89" rx="12.00" ry="12.00" transform="translate(155.25 594.75) rotate(-45.00)" fill="white"/>
      <rect x="-76.37" y="-40.31" width="152.74" height="80.61" rx="12.00" ry="12.00" transform="translate(534.50 595.50) rotate(-45.00)" fill="white"/>
      <rect x="-135.12" y="-40.16" width="270.23" height="80.32" rx="12.00" ry="12.00" transform="translate(307.96 634.94) rotate(-45.00)" fill="white"/>
      <rect x="-40.02" y="-70.64" width="80.05" height="141.27" rx="12.00" ry="12.00" transform="translate(989.66 680.72) rotate(-45.00)" fill="white"/>
      <rect x="-38.90" y="-77.27" width="77.80" height="154.54" rx="12.00" ry="12.00" transform="translate(442.49 687.00) rotate(-45.00)" fill="white"/>
      <rect x="-39.95" y="-77.43" width="79.90" height="154.86" rx="12.00" ry="12.00" transform="translate(628.50 689.00) rotate(-45.00)" fill="white"/>
      <rect x="-39.40" y="-134.46" width="78.80" height="268.92" rx="12.00" ry="12.00" transform="translate(853.69 727.31) rotate(-45.00)" fill="white"/>
      <rect x="-69.65" y="-38.18" width="139.30" height="76.37" rx="12.00" ry="12.00" transform="translate(353.25 771.75) rotate(-45.00)" fill="white"/>
      <rect x="-78.44" y="-39.44" width="156.88" height="78.88" rx="12.00" ry="12.00" transform="translate(720.61 782.02) rotate(-45.00)" fill="white"/>
      <rect x="-133.77" y="-39.86" width="267.53" height="79.71" rx="12.00" ry="12.00" transform="translate(493.85 820.81) rotate(-45.00)" fill="white"/>
      <rect x="-39.24" y="-66.82" width="78.49" height="133.64" rx="12.00" ry="12.00" transform="translate(806.50 868.00) rotate(-45.00)" fill="white"/>
      <rect x="-40.02" y="-133.39" width="80.05" height="266.79" rx="12.00" ry="12.00" transform="translate(666.35 914.10) rotate(-45.00)" fill="white"/>
      <rect x="-67.18" y="-39.60" width="134.35" height="79.20" rx="12.00" ry="12.00" transform="translate(540.00 960.00) rotate(-45.00)" fill="white"/>
      <rect x="-49.85" y="-49.50" width="99.70" height="98.99" rx="12.00" ry="12.00" transform="translate(627.25 1064.75) rotate(-45.00)" fill="white"/>
    </mask>
  </defs>
  <g>
    <g mask="url(#net-mask)">
      <rect width="1254" height="1254" fill="#07090d"/>
      <circle cx="360" cy="240" r="430" fill="url(#spot-0)"/>
      <circle cx="820" cy="300" r="430" fill="url(#spot-1)"/>
      <circle cx="760" cy="830" r="500" fill="url(#spot-2)"/>
      <circle cx="300" cy="780" r="390" fill="url(#spot-3)"/>
      <rect width="1254" height="1254" fill="url(#edge)" opacity="0.18"/>
    </g>
    <g fill="none" stroke="url(#edge)" stroke-width="14" stroke-linejoin="round">
      <rect x="-46.32" y="-47.38" width="92.63" height="94.75" rx="12.00" ry="12.00" transform="translate(628.75 127.25) rotate(-45.00)"/>
      <rect x="-66.82" y="-41.01" width="133.64" height="82.02" rx="12.00" ry="12.00" transform="translate(713.75 230.25) rotate(-45.00)"/>
      <rect x="-39.95" y="-134.00" width="79.90" height="267.99" rx="12.00" ry="12.00" transform="translate(588.00 275.50) rotate(-45.00)"/>
      <rect x="-39.60" y="-65.05" width="79.20" height="130.11" rx="12.00" ry="12.00" transform="translate(444.50 320.50) rotate(-45.00)"/>
      <rect x="-133.29" y="-40.31" width="266.58" height="80.61" rx="12.00" ry="12.00" transform="translate(759.75 369.25) rotate(-45.00)"/>
      <rect x="-77.07" y="-39.24" width="154.15" height="78.49" rx="12.00" ry="12.00" transform="translate(533.25 407.25) rotate(-45.00)"/>
      <rect x="-67.10" y="-39.74" width="134.21" height="79.48" rx="12.00" ry="12.00" transform="translate(895.22 413.86) rotate(-45.00)"/>
      <rect x="-39.84" y="-134.04" width="79.68" height="268.08" rx="12.00" ry="12.00" transform="translate(401.36 461.24) rotate(-45.00)"/>
      <rect x="-39.60" y="-74.60" width="79.20" height="149.20" rx="12.00" ry="12.00" transform="translate(812.25 500.25) rotate(-45.00)"/>
      <rect x="-39.60" y="-77.43" width="79.20" height="154.86" rx="12.00" ry="12.00" transform="translate(625.75 500.75) rotate(-45.00)"/>
      <rect x="-39.24" y="-67.18" width="78.49" height="134.35" rx="12.00" ry="12.00" transform="translate(263.25 505.75) rotate(-45.00)"/>
      <rect x="-133.28" y="-40.02" width="266.56" height="80.04" rx="12.00" ry="12.00" transform="translate(941.36 551.76) rotate(-45.00)"/>
      <rect x="-54.80" y="-53.74" width="109.60" height="107.48" rx="12.00" ry="12.00" transform="translate(1096.75 593.25) rotate(-45.00)"/>
      <rect x="-77.43" y="-40.31" width="154.86" height="80.61" rx="12.00" ry="12.00" transform="translate(719.75 594.25) rotate(-45.00)"/>
      <rect x="-51.97" y="-54.45" width="103.94" height="108.89" rx="12.00" ry="12.00" transform="translate(155.25 594.75) rotate(-45.00)"/>
      <rect x="-76.37" y="-40.31" width="152.74" height="80.61" rx="12.00" ry="12.00" transform="translate(534.50 595.50) rotate(-45.00)"/>
      <rect x="-135.12" y="-40.16" width="270.23" height="80.32" rx="12.00" ry="12.00" transform="translate(307.96 634.94) rotate(-45.00)"/>
      <rect x="-40.02" y="-70.64" width="80.05" height="141.27" rx="12.00" ry="12.00" transform="translate(989.66 680.72) rotate(-45.00)"/>
      <rect x="-38.90" y="-77.27" width="77.80" height="154.54" rx="12.00" ry="12.00" transform="translate(442.49 687.00) rotate(-45.00)"/>
      <rect x="-39.95" y="-77.43" width="79.90" height="154.86" rx="12.00" ry="12.00" transform="translate(628.50 689.00) rotate(-45.00)"/>
      <rect x="-39.40" y="-134.46" width="78.80" height="268.92" rx="12.00" ry="12.00" transform="translate(853.69 727.31) rotate(-45.00)"/>
      <rect x="-69.65" y="-38.18" width="139.30" height="76.37" rx="12.00" ry="12.00" transform="translate(353.25 771.75) rotate(-45.00)"/>
      <rect x="-78.44" y="-39.44" width="156.88" height="78.88" rx="12.00" ry="12.00" transform="translate(720.61 782.02) rotate(-45.00)"/>
      <rect x="-133.77" y="-39.86" width="267.53" height="79.71" rx="12.00" ry="12.00" transform="translate(493.85 820.81) rotate(-45.00)"/>
      <rect x="-39.24" y="-66.82" width="78.49" height="133.64" rx="12.00" ry="12.00" transform="translate(806.50 868.00) rotate(-45.00)"/>
      <rect x="-40.02" y="-133.39" width="80.05" height="266.79" rx="12.00" ry="12.00" transform="translate(666.35 914.10) rotate(-45.00)"/>
      <rect x="-67.18" y="-39.60" width="134.35" height="79.20" rx="12.00" ry="12.00" transform="translate(540.00 960.00) rotate(-45.00)"/>
      <rect x="-49.85" y="-49.50" width="99.70" height="98.99" rx="12.00" ry="12.00" transform="translate(627.25 1064.75) rotate(-45.00)"/>
    </g>
    <g fill="none" stroke="#ffffff" stroke-opacity="0.2" stroke-width="5" stroke-linejoin="round" transform="translate(-10 -14)">
      <rect x="-46.32" y="-47.38" width="92.63" height="94.75" rx="12.00" ry="12.00" transform="translate(628.75 127.25) rotate(-45.00)"/>
      <rect x="-66.82" y="-41.01" width="133.64" height="82.02" rx="12.00" ry="12.00" transform="translate(713.75 230.25) rotate(-45.00)"/>
      <rect x="-39.95" y="-134.00" width="79.90" height="267.99" rx="12.00" ry="12.00" transform="translate(588.00 275.50) rotate(-45.00)"/>
      <rect x="-39.60" y="-65.05" width="79.20" height="130.11" rx="12.00" ry="12.00" transform="translate(444.50 320.50) rotate(-45.00)"/>
      <rect x="-133.29" y="-40.31" width="266.58" height="80.61" rx="12.00" ry="12.00" transform="translate(759.75 369.25) rotate(-45.00)"/>
      <rect x="-77.07" y="-39.24" width="154.15" height="78.49" rx="12.00" ry="12.00" transform="translate(533.25 407.25) rotate(-45.00)"/>
      <rect x="-67.10" y="-39.74" width="134.21" height="79.48" rx="12.00" ry="12.00" transform="translate(895.22 413.86) rotate(-45.00)"/>
      <rect x="-39.84" y="-134.04" width="79.68" height="268.08" rx="12.00" ry="12.00" transform="translate(401.36 461.24) rotate(-45.00)"/>
      <rect x="-39.60" y="-74.60" width="79.20" height="149.20" rx="12.00" ry="12.00" transform="translate(812.25 500.25) rotate(-45.00)"/>
      <rect x="-39.60" y="-77.43" width="79.20" height="154.86" rx="12.00" ry="12.00" transform="translate(625.75 500.75) rotate(-45.00)"/>
      <rect x="-39.24" y="-67.18" width="78.49" height="134.35" rx="12.00" ry="12.00" transform="translate(263.25 505.75) rotate(-45.00)"/>
      <rect x="-133.28" y="-40.02" width="266.56" height="80.04" rx="12.00" ry="12.00" transform="translate(941.36 551.76) rotate(-45.00)"/>
      <rect x="-54.80" y="-53.74" width="109.60" height="107.48" rx="12.00" ry="12.00" transform="translate(1096.75 593.25) rotate(-45.00)"/>
      <rect x="-77.43" y="-40.31" width="154.86" height="80.61" rx="12.00" ry="12.00" transform="translate(719.75 594.25) rotate(-45.00)"/>
      <rect x="-51.97" y="-54.45" width="103.94" height="108.89" rx="12.00" ry="12.00" transform="translate(155.25 594.75) rotate(-45.00)"/>
      <rect x="-76.37" y="-40.31" width="152.74" height="80.61" rx="12.00" ry="12.00" transform="translate(534.50 595.50) rotate(-45.00)"/>
      <rect x="-135.12" y="-40.16" width="270.23" height="80.32" rx="12.00" ry="12.00" transform="translate(307.96 634.94) rotate(-45.00)"/>
      <rect x="-40.02" y="-70.64" width="80.05" height="141.27" rx="12.00" ry="12.00" transform="translate(989.66 680.72) rotate(-45.00)"/>
      <rect x="-38.90" y="-77.27" width="77.80" height="154.54" rx="12.00" ry="12.00" transform="translate(442.49 687.00) rotate(-45.00)"/>
      <rect x="-39.95" y="-77.43" width="79.90" height="154.86" rx="12.00" ry="12.00" transform="translate(628.50 689.00) rotate(-45.00)"/>
      <rect x="-39.40" y="-134.46" width="78.80" height="268.92" rx="12.00" ry="12.00" transform="translate(853.69 727.31) rotate(-45.00)"/>
      <rect x="-69.65" y="-38.18" width="139.30" height="76.37" rx="12.00" ry="12.00" transform="translate(353.25 771.75) rotate(-45.00)"/>
      <rect x="-78.44" y="-39.44" width="156.88" height="78.88" rx="12.00" ry="12.00" transform="translate(720.61 782.02) rotate(-45.00)"/>
      <rect x="-133.77" y="-39.86" width="267.53" height="79.71" rx="12.00" ry="12.00" transform="translate(493.85 820.81) rotate(-45.00)"/>
      <rect x="-39.24" y="-66.82" width="78.49" height="133.64" rx="12.00" ry="12.00" transform="translate(806.50 868.00) rotate(-45.00)"/>
      <rect x="-40.02" y="-133.39" width="80.05" height="266.79" rx="12.00" ry="12.00" transform="translate(666.35 914.10) rotate(-45.00)"/>
      <rect x="-67.18" y="-39.60" width="134.35" height="79.20" rx="12.00" ry="12.00" transform="translate(540.00 960.00) rotate(-45.00)"/>
      <rect x="-49.85" y="-49.50" width="99.70" height="98.99" rx="12.00" ry="12.00" transform="translate(627.25 1064.75) rotate(-45.00)"/>
    </g>
  </g>
</svg>
